# Blender 4.5.1 LTS
# www.blender.org
mtllib Block.mtl
o Cube.003
v -0.979573 -1.003586 1.012730
v -0.979573 0.996414 1.012730
v -0.979573 -1.003586 -0.987270
v -0.979573 0.996414 -0.987270
v 1.020427 -1.003586 1.012730
v 1.020427 0.996414 1.012730
v 1.020427 -1.003586 -0.987270
v 1.020427 0.996414 -0.987270
v -0.341909 -1.003586 1.012730
v 0.761082 -1.003586 1.012730
v -0.290776 -0.910548 1.012730
v 0.395853 -0.691411 1.012730
v 0.709949 -0.749847 1.012730
v -0.458782 -0.917852 1.012730
v -0.979573 -0.523406 1.012730
v -0.677919 -0.033999 1.012730
v -0.122772 0.302011 1.012730
v 0.081757 0.243574 1.012730
v 0.030624 -0.516101 1.012730
v -0.369029 -0.844175 1.012730
v 1.020427 -0.165482 1.012730
v 0.892564 -0.253137 1.012730
v 0.067643 0.996414 1.012730
v 1.020427 0.119397 1.012730
v 0.520031 0.396970 1.012730
v 0.227847 0.747590 1.012730
v -0.352981 0.996414 1.012730
v -0.979573 0.769504 0.991990
v -0.524631 0.722343 0.982726
v 0.064744 0.996414 1.012730
v 0.861817 0.052814 1.012730
v -0.458782 -0.917852 1.053535
v -0.979573 -1.003586 1.053535
v -0.677919 -0.033999 1.053535
v -0.122772 0.308787 1.053535
v 0.081757 0.243574 1.053535
v -0.676977 -0.033646 1.041701
v -0.978630 0.769857 1.041701
v -0.523689 0.722697 1.011698
v -0.979573 -1.003586 1.062230
v -0.341909 -1.003586 1.062230
v -0.458782 -0.917852 1.062230
v -0.290776 -0.910548 1.019521
v 0.395853 -0.691411 1.019521
v 0.030624 -0.516101 1.019521
v -0.369029 -0.844175 1.019521
v 0.979414 0.955400 1.080399
v 1.020427 0.996414 1.039386
v 0.067643 0.996414 1.039386
v 0.142829 0.955400 1.080399
v 0.979414 0.189048 1.080399
v 1.020427 0.119397 1.039386
v 0.546630 0.429116 1.080399
v 0.520031 0.396970 1.039386
v 0.260968 0.771911 1.080399
v 0.227847 0.747590 1.039386
v -0.101022 0.314303 1.096080
v -0.122772 0.302011 1.078286
v 0.081757 0.243574 1.078286
v 0.081212 0.262236 1.096080
v 0.489936 0.405289 1.096080
v 0.520031 0.396970 1.078286
v 0.227847 0.747590 1.078286
v 0.213478 0.737038 1.096080
v 0.067643 0.996414 1.078286
v 0.057937 0.978620 1.096080
v 0.064744 0.996414 1.078286
v -0.652784 0.008220 1.078522
v -0.680541 -0.033173 1.059423
v -0.125393 0.302838 1.059422
v -0.150740 0.312122 1.079587
v -0.527252 0.723170 1.029419
v -0.510542 0.716204 1.056678
v -0.362318 0.950784 1.077175
v -0.355603 0.997240 1.059422
v -0.978800 0.767369 1.043948
v -0.952230 0.789030 1.068182
v -0.952174 0.966522 1.069892
v -0.978800 0.994279 1.043948
v -0.398350 0.966676 1.067064
v -0.352208 0.994279 1.043949
v -0.523858 0.720208 1.013945
v -0.536582 0.745707 1.044435
v -0.458782 -0.917852 1.030260
v -0.485319 -0.859258 1.092386
v -0.917446 -0.930396 1.092386
v -0.979573 -1.003586 1.030260
v -0.917446 -0.541014 1.092386
v -0.979573 -0.523406 1.012381
v -0.613393 -0.081341 1.098107
v -0.658404 -0.035965 1.035980
v -0.113785 0.234831 1.092386
v -0.122772 0.302011 1.030260
v 0.016398 0.197636 1.092386
v 0.081757 0.243574 1.030260
v -0.029558 -0.485126 1.092386
v 0.030624 -0.516101 1.030260
v -0.369029 -0.844175 1.030260
v -0.408448 -0.796155 1.092386
v -0.300679 -0.979199 1.067237
v -0.341909 -1.003586 1.042850
v 0.761082 -1.003586 1.042850
v 0.731291 -0.979199 1.067237
v -0.274091 -0.930821 1.067237
v -0.290776 -0.910548 1.042850
v 0.397423 -0.716508 1.067237
v 0.395853 -0.691411 1.042850
v 0.689297 -0.770810 1.067237
v 0.709949 -0.749847 1.042850
v 1.020427 -0.165482 1.051290
v 1.000429 -0.203438 1.071288
v 1.000429 -0.983588 1.071288
v 1.020427 -1.003586 1.051290
v 0.777452 -0.983588 1.071288
v 0.761082 -1.003586 1.051290
v 0.730671 -0.751440 1.071288
v 0.709949 -0.749847 1.051290
v 0.892564 -0.253137 1.051290
v 0.909133 -0.266024 1.071288
v 0.133821 0.203940 1.087330
v 0.030624 -0.516101 1.032721
v 0.087593 -0.482873 1.087330
v 0.520031 0.396970 1.032721
v 0.505558 0.334048 1.087330
v 0.809419 0.028079 1.087330
v 0.861817 0.052814 1.032721
v 0.835428 -0.230724 1.087330
v 0.892564 -0.253137 1.032721
v 0.386859 -0.626520 1.087330
v 0.395853 -0.691411 1.032721
v -0.933634 -0.365178 1.050338
v -0.974483 -0.524720 1.009853
v -0.678150 -0.034086 1.005635
v -0.718725 -0.017043 1.045333
v -0.933731 0.720383 1.047395
v -0.977053 0.771847 1.009415
v -0.576927 0.683419 1.025022
v -0.524862 0.722256 0.975632
v -0.979573 -1.003586 1.082522
v -0.341909 -1.003586 1.082522
v -0.458782 -0.917852 1.082522
v -0.946689 -0.994378 1.128244
v -0.945631 -1.007331 1.128244
v -0.834136 -0.991695 1.134721
v -0.821678 -0.984157 1.138465
v -0.979573 -1.003586 1.122830
v -0.820621 -0.997110 1.138465
v -0.341909 -1.003586 1.122830
v -0.379262 -0.984218 1.138465
v -0.383483 -0.997110 1.138465
v -0.348048 -0.994439 1.128244
v -0.378223 -0.991695 1.134721
v -0.352270 -1.007331 1.128244
v -0.458782 -0.917852 1.122830
v -0.469845 -0.926237 1.138465
v -0.452712 -0.930337 1.138465
v -0.467265 -0.915454 1.128244
v -0.461784 -0.930398 1.134721
v -0.450132 -0.919554 1.128244
v -0.284063 -0.876957 1.107574
v -0.290776 -0.910548 1.077614
v 0.395853 -0.691411 1.077614
v 0.314916 -0.685793 1.107574
v 0.034874 -0.551373 1.107574
v 0.030624 -0.516101 1.077614
v -0.369029 -0.844175 1.077614
v -0.322269 -0.844551 1.107574
vn -1.0000 -0.0000 -0.0000
vn -0.0000 -0.0000 -1.0000
vn 1.0000 -0.0000 -0.0000
vn -0.0000 -1.0000 -0.0000
vn -0.0000 1.0000 -0.0000
vn -0.1624 0.9867 -0.0000
vn -0.0000 -0.0000 1.0000
vn 0.4327 0.9015 -0.0000
vn 0.2884 0.9542 -0.0792
vn 0.1624 -0.9867 -0.0000
vn -0.9066 0.4219 -0.0000
vn -0.5203 0.8511 -0.0707
vn 0.9794 -0.1997 -0.0294
vn -0.9516 0.1178 0.2840
vn 0.1026 0.9947 -0.0114
vn 0.5915 0.8063 -0.0000
vn 0.3040 -0.9527 -0.0000
vn -0.6345 0.7729 -0.0000
vn -0.6468 -0.7626 -0.0000
vn -0.0000 0.7071 0.7071
vn 0.7071 -0.0000 0.7071
vn -0.3430 -0.6183 0.7071
vn -0.5432 -0.4527 0.7071
vn -0.5945 -0.3828 0.7071
vn -0.8408 -0.5413 -0.0000
vn -0.4851 -0.8745 -0.0000
vn -0.7682 -0.6402 -0.0000
vn -0.1943 -0.6799 0.7071
vn 0.5432 0.4527 0.7071
vn 0.5945 0.3828 0.7071
vn -0.0573 0.0147 0.9983
vn 0.2336 -0.6674 0.7071
vn -0.9654 0.2607 -0.0000
vn -0.2747 -0.9615 -0.0000
vn 0.3303 -0.9439 -0.0000
vn 0.7682 0.6402 -0.0000
vn 0.8408 0.5413 -0.0000
vn 0.3525 -0.5836 0.7316
vn -0.6992 0.3796 0.6058
vn 0.6342 0.2115 0.7436
vn -0.7728 0.1775 0.6094
vn 0.5173 -0.8547 0.0442
vn -0.0461 0.0156 0.9988
vn -0.9788 0.1961 -0.0584
vn 0.9481 0.3143 0.0477
vn -0.8433 0.5344 -0.0568
vn -0.6863 -0.0030 0.7273
vn 0.0017 0.6629 0.7487
vn -0.0376 -0.7523 0.6578
vn 0.6097 -0.4510 0.6518
vn -0.9998 -0.0008 0.0185
vn 0.0242 -0.0693 0.9973
vn -0.1051 -0.9933 -0.0490
vn -0.0000 0.9977 0.0682
vn 0.8489 -0.5254 -0.0569
vn 0.1149 -0.6977 0.7071
vn -0.7554 0.0135 0.6551
vn -0.6376 0.4005 0.6581
vn -0.3723 0.6016 0.7067
vn 0.1943 0.6799 0.7071
vn 0.7055 -0.0475 0.7071
vn 0.4487 -0.5465 0.7071
vn 0.0033 -0.0034 1.0000
vn 0.4870 -0.7769 0.3991
vn -0.2866 -0.9481 0.1380
vn -0.0000 -0.7071 0.7071
vn -0.6197 0.3406 0.7071
vn -0.2150 0.6736 0.7071
vn 0.1293 0.6952 0.7071
vn 0.6932 0.1397 0.7071
vn -0.8764 0.4816 -0.0000
vn 0.9803 0.1975 -0.0000
vn -0.3040 0.9527 -0.0000
vn 0.1829 0.9831 -0.0000
vn -0.6932 -0.1397 0.7071
vn -0.3998 0.5832 0.7071
vn -0.6637 0.2440 0.7071
vn -0.5654 0.8248 -0.0000
vn -0.9803 -0.1975 -0.0000
vn -0.9386 0.3451 -0.0000
vn 0.5017 0.4983 0.7071
vn 0.7036 0.0707 0.7071
vn 0.4678 -0.5302 0.7071
vn -0.3060 -0.6375 0.7071
vn -0.6735 0.3554 0.6481
vn -0.4327 -0.9015 -0.0000
vn 0.7095 0.7047 -0.0000
vn 0.9950 0.1000 -0.0000
vn 0.6616 -0.7498 -0.0000
vn 0.5714 -0.3400 0.7469
vn -0.6821 0.0003 0.7313
vn 0.1231 0.6839 0.7191
vn 0.7026 -0.1181 0.7017
vn 0.0426 0.0096 0.9990
vn -0.9794 0.1997 0.0294
vn -0.1076 -0.9939 -0.0232
vn -0.0573 -0.0047 0.9983
vn -0.0976 -0.0080 0.9952
vn 0.3349 -0.1096 0.9359
vn 0.2036 -0.0667 0.9768
vn 0.1919 0.8019 0.5658
vn 0.1021 0.4269 0.8985
vn -0.0000 -0.9239 0.3827
vn 0.2824 -0.0925 0.9548
vn -0.0000 -0.3827 0.9239
vn 0.5465 0.7449 0.3827
vn 0.1577 0.6592 0.7353
vn 0.2264 0.3086 0.9239
vn -0.1501 0.9116 0.3827
vn -0.0622 0.3776 0.9239
vn -0.1149 0.6977 0.7071
vn 0.4182 0.5701 0.7071
vn 0.2150 -0.6736 0.7071
vn -0.4487 0.5465 0.7071
vn -0.4574 -0.5393 0.7071
vn 0.3060 0.6375 0.7071
vn -0.6901 0.3732 0.6201
vt 0.375000 0.000000
vt 0.435023 0.000000
vt 0.596636 0.000000
vt 0.625000 0.000000
vt 0.625000 0.250000
vt 0.375000 0.250000
vt 0.625000 0.500000
vt 0.375000 0.500000
vt 0.625000 0.750000
vt 0.515373 0.750000
vt 0.479763 0.750000
vt 0.375000 0.750000
vt 0.125000 0.500000
vt 0.342582 0.750000
vt 0.204708 0.750000
vt 0.125000 0.750000
vt 0.875000 0.500000
vt 0.875000 0.750000
vt 0.830902 0.750000
vt 0.762104 0.750000
vt 0.728638 0.750000
vt 0.385717 0.934901
vt 0.375000 1.000000
vt 0.386630 0.913900
vt 0.394926 0.923682
vt 0.375000 0.920292
vt 0.406717 0.788810
vt 0.468806 0.765983
vt 0.414022 0.828072
vt 0.625000 0.955902
vt 0.538200 0.892900
vt 0.625000 0.887104
vt 0.435936 0.873725
vt 0.550070 0.812549
vt 0.507050 0.769959
vt 0.530895 0.867334
vt 0.435936 0.873725
vt 0.530895 0.867334
vt 0.385717 0.934901
vt 0.394926 0.923682
vt 0.496198 0.962293
vt 0.608506 0.970511
vt 0.496198 0.962294
vt 0.435023 1.000000
vt 0.596636 0.000000
vt 0.596636 1.000000
vt 0.625000 0.853638
vt 0.619873 0.847286
vt 0.619873 0.754645
vt 0.524079 0.755054
vt 0.554088 0.808932
vt 0.550070 0.812550
vt 0.596937 0.842790
vt 0.593897 0.849072
vt 0.625000 0.853638
vt 0.593897 0.849072
vt 0.538200 0.892900
vt 0.533228 0.867506
vt 0.539736 0.890455
vt 0.550070 0.812550
vt 0.593897 0.849073
vt 0.592578 0.851233
vt 0.551109 0.816386
vt 0.622776 0.890411
vt 0.625000 0.887104
vt 0.496198 0.962293
vt 0.538200 0.892900
vt 0.539522 0.896893
vt 0.501906 0.959654
vt 0.605757 0.967486
vt 0.620461 0.954829
vt 0.625000 0.955902
vt 0.608506 0.970511
vt 0.600268 0.998275
vt 0.622006 0.998208
vt 0.625000 1.000000
vt 0.596680 1.000000
vt 0.625000 0.955925
vt 0.623347 0.959419
vt 0.609638 0.971128
vt 0.393041 0.938218
vt 0.384149 0.992234
vt 0.375000 1.000000
vt 0.432822 0.992234
vt 0.435023 1.000000
vt 0.490526 0.956667
vt 0.496198 0.962293
vt 0.529802 0.891777
vt 0.525153 0.875504
vt 0.439807 0.881248
vt 0.400929 0.928609
vt 0.375000 0.920292
vt 0.375000 0.782418
vt 0.378048 0.786142
vt 0.378048 0.915138
vt 0.384096 0.911815
vt 0.386630 0.913900
vt 0.410885 0.827876
vt 0.414022 0.828072
vt 0.404097 0.791391
vt 0.375000 0.782418
vt 0.475019 0.752500
vt 0.377500 0.752500
vt 0.479763 0.750000
vt 0.377500 0.780372
vt 0.406717 0.788810
vt 0.406518 0.786220
vt 0.468806 0.765983
vt 0.467195 0.763912
vt 0.542204 0.814367
vt 0.503958 0.776480
vt 0.507050 0.769959
vt 0.550070 0.812549
vt 0.471608 0.773139
vt 0.468806 0.765983
vt 0.422133 0.829197
vt 0.414022 0.828072
vt 0.440089 0.866605
vt 0.435936 0.873725
vt 0.525941 0.860827
vt 0.498810 0.968368
vt 0.454804 0.994505
vt 0.592016 0.996852
vt 0.596593 1.000000
vt 0.600997 0.973216
vt 0.608506 0.970511
vt 0.376151 0.995890
vt 0.374532 0.995758
vt 0.376486 0.981820
vt 0.377480 0.980271
vt 0.375000 1.000000
vt 0.375939 0.980152
vt 0.377466 0.924928
vt 0.375843 0.925464
vt 0.376143 0.921059
vt 0.376486 0.924831
vt 0.374532 0.921587
vt 0.385717 0.934901
vt 0.384669 0.936284
vt 0.384156 0.934142
vt 0.386017 0.935961
vt 0.384148 0.935276
vt 0.385504 0.933820
vt 0.125000 0.750000
vt 0.386630 0.913900
vt 0.414724 0.838189
vt 0.390829 0.913061
vt 0.435936 0.873725
vt 0.394926 0.923682
vt 0.394879 0.917837
vt 0.431527 0.873194
vt 0.435023 1.000000
s 0
usemtl Material.001
f 1/1/1 15/2/1 28/3/1 2/4/1 4/5/1 3/6/1
f 3/6/2 4/5/2 8/7/2 7/8/2
f 7/8/3 8/7/3 6/9/3 24/10/3 21/11/3 5/12/3
f 3/13/4 7/8/4 5/12/4 10/14/4 9/15/4 1/16/4
f 8/7/5 4/17/5 2/18/5 27/19/5 30/20/5 23/21/5 6/9/5
f 14/22/6 1/23/6 40/23/6 42/22/6
f 12/29/8 19/33/8 45/33/8 44/29/8
f 18/36/9 17/31/9 35/31/9 36/36/9
f 1/23/10 14/22/10 32/22/10 33/23/10
f 97/37/11 95/38/11 36/36/11 18/36/11 19/33/11 20/25/11 14/22/11 32/22/11 84/39/11 98/40/11
f 17/31/12 16/41/12 34/41/12 35/31/12
f 16/41/13 29/42/13 39/42/13 37/41/13
f 38/3/14 28/3/14 15/2/14 16/41/14 37/41/14 133/43/14 132/44/14 136/45/14
f 29/42/15 28/46/15 38/46/15 39/42/15
f 42/22/6 40/23/6 139/23/6 141/22/6
f 9/26/16 14/22/16 42/22/16 41/26/16
f 1/16/4 9/15/4 41/15/4 40/16/4
f 11/24/17 12/29/17 44/29/17 43/24/17
f 19/33/18 20/25/18 46/25/18 45/33/18
f 20/25/19 11/24/19 43/24/19 46/25/19
f 48/9/20 49/47/20 50/48/20 47/49/20
f 47/49/21 51/50/21 52/10/21 48/9/21
f 51/50/22 53/51/22 54/52/22 52/10/22
f 53/51/23 55/53/23 56/54/23 54/52/23
f 55/53/24 50/48/24 49/47/24 56/54/24
f 6/9/5 23/21/5 49/21/5 48/9/5
f 50/48/7 55/53/7 53/51/7 51/50/7 47/49/7
f 24/10/3 6/9/3 48/9/3 52/10/3
f 23/55/25 26/56/25 56/54/25 49/47/25
f 25/34/26 24/10/26 52/10/26 54/52/26
f 26/56/27 25/34/27 54/52/27 56/54/27
f 58/57/28 59/38/28 60/58/28 57/59/28
f 62/60/29 63/61/29 64/62/29 61/63/29
f 63/61/30 65/47/30 66/64/30 64/62/30
f 66/64/31 65/47/31 67/65/31 58/57/31 57/59/31 60/58/31 61/63/31 64/62/31
f 59/38/32 62/60/32 61/63/32 60/58/32
f 30/32/33 17/31/33 58/57/33 67/65/33
f 17/31/34 18/36/34 59/38/34 58/57/34
f 18/36/35 25/34/35 62/60/35 59/38/35
f 25/34/36 26/56/36 63/61/36 62/60/36
f 26/56/37 23/55/37 65/47/37 63/61/37
f 23/21/5 30/20/5 67/20/5 65/21/5
f 69/66/38 70/67/38 71/68/38 68/69/38
f 73/70/39 74/71/39 75/72/39 72/73/39
f 74/71/40 71/68/40 70/67/40 75/72/40
f 68/69/41 73/70/41 72/73/41 69/66/41
f 16/41/42 17/31/42 70/67/42 69/66/42
f 71/68/43 74/71/43 73/70/43 68/69/43
f 29/42/44 16/41/44 69/66/44 72/73/44
f 17/31/45 27/30/45 75/72/45 70/67/45
f 27/30/46 29/42/46 72/73/46 75/72/46
f 77/74/47 78/75/47 79/76/47 76/77/47
f 81/78/48 79/76/48 78/75/48 80/79/48
f 76/77/49 82/42/49 83/80/49 77/74/49
f 82/42/50 81/78/50 80/79/50 83/80/50
f 2/4/51 28/3/51 76/3/51 79/4/51
f 77/74/52 83/80/52 80/79/52 78/75/52
f 28/46/53 29/42/53 82/42/53 76/77/53
f 27/19/54 2/18/54 79/18/54 81/19/54
f 29/42/55 27/30/55 81/78/55 82/42/55
f 85/81/56 86/82/56 87/83/56 84/39/56
f 86/82/57 88/84/57 89/85/57 87/83/57
f 88/84/58 90/86/58 91/87/58 89/85/58
f 90/86/59 92/88/59 93/67/59 91/87/59
f 92/88/60 94/89/60 95/38/60 93/67/60
f 94/89/61 96/90/61 97/37/61 95/38/61
f 99/91/62 85/81/62 84/39/62 98/40/62
f 96/90/62 99/91/62 98/40/62 97/37/62
f 33/23/6 32/22/6 84/39/6 87/83/6
f 35/31/64 34/41/64 91/87/64 93/67/64
f 36/36/65 35/31/65 93/67/65 95/38/65
f 101/92/66 102/93/66 103/94/66 100/95/66
f 100/95/67 104/96/67 105/97/67 101/92/67
f 104/96/68 106/98/68 107/99/68 105/97/68
f 106/98/69 108/100/69 109/27/69 107/99/69
f 108/100/70 103/94/70 102/93/70 109/27/70
f 9/15/4 10/14/4 102/14/4 101/15/4
f 11/24/71 9/26/71 101/92/71 105/97/71
f 10/101/72 13/27/72 109/27/72 102/93/72
f 12/29/73 11/24/73 105/97/73 107/99/73
f 13/27/74 12/29/74 107/99/74 109/27/74
f 111/102/21 112/103/21 113/12/21 110/104/21
f 115/101/66 113/12/66 112/103/66 114/105/66
f 117/106/75 115/101/75 114/105/75 116/107/75
f 110/104/76 118/108/76 119/109/76 111/102/76
f 118/108/77 117/106/77 116/107/77 119/109/77
f 5/12/3 21/11/3 110/104/3 113/12/3
f 21/11/78 22/28/78 118/108/78 110/104/78
f 10/14/4 5/12/4 113/12/4 115/14/4
f 13/27/79 10/101/79 115/101/79 117/106/79
f 22/28/80 13/27/80 117/106/80 118/108/80
f 124/110/81 125/111/81 126/112/81 123/113/81
f 125/111/82 127/114/82 128/115/82 126/112/82
f 127/114/83 129/116/83 130/117/83 128/115/83
f 129/116/84 122/118/84 121/119/84 130/117/84
f 120/120/85 124/110/85 123/113/85 25/34/85 18/36/85 19/33/85 121/119/85 122/118/85
f 19/33/86 12/29/86 130/117/86 121/119/86
f 31/35/87 25/34/87 123/113/87 126/112/87
f 22/28/88 31/35/88 126/112/88 128/115/88
f 12/29/89 22/28/89 128/115/89 130/117/89
f 132/44/90 133/43/90 134/121/90 131/122/90
f 131/122/91 135/123/91 136/124/91 132/44/91
f 135/123/92 137/125/92 138/126/92 136/124/92
f 133/43/93 138/126/93 137/125/93 134/121/93
f 134/121/94 137/125/94 135/123/94 131/122/94
f 37/41/95 39/42/95 138/126/95 133/43/95
f 39/42/96 38/46/96 136/124/96 138/126/96
f 41/26/16 42/22/16 141/22/16 140/26/16
f 40/16/4 41/15/4 140/15/4 139/16/4
f 142/127/97 143/128/97 144/129/97
f 145/130/98 146/131/98 147/132/98
f 148/26/99 149/133/99 150/134/99
f 151/135/100 152/136/100 153/137/100
f 154/138/101 155/139/101 156/140/101
f 157/141/102 158/142/102 159/143/102
f 146/131/103 148/26/103 150/134/103 147/132/103
f 149/133/104 150/134/104 153/137/104 151/135/104
f 152/136/105 144/129/105 143/128/105 153/137/105
f 148/26/106 154/138/106 156/140/106 149/133/106
f 155/139/107 156/140/107 159/143/107 157/141/107
f 158/142/108 152/136/108 151/135/108 159/143/108
f 154/138/109 146/131/109 145/130/109 155/139/109
f 144/129/110 158/142/110 157/141/110 142/127/110
f 155/139/111 157/141/111 142/127/111 145/130/111
f 147/132/66 143/128/66 153/137/66 150/134/66
f 152/136/7 158/142/7 144/129/7
f 141/22/6 139/23/6 146/131/6 154/138/6
f 139/16/4 140/15/4 148/15/4 146/144/4
f 149/133/112 151/135/112 159/143/112 156/140/112
f 140/26/16 141/22/16 154/138/16 148/26/16
f 161/145/113 162/29/113 163/146/113 160/147/113
f 165/148/114 166/149/114 167/150/114 164/151/114
f 160/147/115 167/150/115 166/149/115 161/145/115
f 162/29/116 165/148/116 164/151/116 163/146/116
f 43/24/17 44/29/17 162/29/17 161/145/17
f 163/146/7 164/151/7 167/150/7 160/147/7
f 46/25/19 43/24/19 161/145/19 166/149/19
f 44/29/8 45/33/8 165/148/8 162/29/8
f 45/33/18 46/25/18 166/149/18 165/148/18
f 33/1/1 87/1/1 89/2/1 15/2/1 1/1/1
f 15/152/117 89/85/117 91/87/117 34/41/117 16/41/117
usemtl Material.002
f 85/81/63 99/91/63 96/90/63 94/89/63 92/88/63 90/86/63 88/84/63 86/82/63
f 103/94/7 108/100/7 106/98/7 104/96/7 100/95/7
f 112/103/7 111/102/7 119/109/7 116/107/7 114/105/7
f 122/118/7 129/116/7 127/114/7 125/111/7 124/110/7 120/120/7
usemtl Material.003
f 11/24/7 20/25/7 14/22/7 9/26/7
f 13/27/7 22/28/7 12/29/7
f 27/30/7 17/31/7 30/32/7
f 25/34/7 31/35/7 22/28/7 21/11/7 24/10/7
