# Blender 4.5.1 LTS
# www.blender.org
mtllib Block.mtl
o Cube.003
v -0.979573 -1.003586 1.012730
v -0.979573 0.996414 1.012730
v -0.979573 -1.003586 -0.987270
v -0.979573 0.996414 -0.987270
v 1.020427 -1.003586 1.012730
v 1.020427 0.996414 1.012730
v 1.020427 -1.003586 -0.987270
v 1.020427 0.996414 -0.987270
v -0.341909 -1.003586 1.012730
v 0.761082 -1.003586 1.012730
v -0.290776 -0.910548 1.012730
v 0.395853 -0.691411 1.012730
v 0.709949 -0.749847 1.012730
v -0.458782 -0.917852 1.012730
v -0.979573 -0.523406 1.012730
v -0.677919 -0.033999 1.012730
v -0.122772 0.302011 1.012730
v 0.081757 0.243574 1.012730
v 0.030624 -0.516101 1.012730
v -0.369029 -0.844175 1.012730
v 1.020427 -0.165482 1.012730
v 0.892564 -0.253137 1.012730
v 0.067643 0.996414 1.012730
v 1.020427 0.119397 1.012730
v 0.520031 0.396970 1.012730
v 0.227847 0.747590 1.012730
v -0.352981 0.996414 1.012730
v -0.979573 0.769504 1.012730
v -0.524631 0.722343 0.982726
v 0.064744 0.996414 1.012730
v 0.861817 0.052814 1.012730
v -0.458782 -0.917852 1.053535
v -0.979573 -1.003586 1.053535
v -0.979573 -0.523406 1.053535
v -0.677919 -0.033999 1.053535
v -0.122772 0.302011 1.053535
v 0.081757 0.243574 1.053535
v 0.030624 -0.516101 1.053535
v -0.369029 -0.844175 1.053535
v -0.978630 -0.523052 1.041701
v -0.676977 -0.033646 1.041701
v -0.978630 0.769857 1.041701
v -0.523689 0.722697 1.011698
v -0.979573 -1.003586 1.062230
v -0.341909 -1.003586 1.062230
v -0.458782 -0.917852 1.062230
v -0.290776 -0.910548 1.019521
v 0.395853 -0.691411 1.019521
v 0.030624 -0.516101 1.019521
v -0.369029 -0.844175 1.019521
v 0.979414 0.955400 1.080399
v 1.020427 0.996414 1.039386
v 0.067643 0.996414 1.039386
v 0.142829 0.955400 1.080399
v 0.979414 0.189048 1.080399
v 1.020427 0.119397 1.039386
v 0.546630 0.429116 1.080399
v 0.520031 0.396970 1.039386
v 0.260968 0.771911 1.080399
v 0.227847 0.747590 1.039386
v -0.101022 0.314303 1.096080
v -0.122772 0.302011 1.078286
v 0.081757 0.243574 1.078286
v 0.081212 0.262236 1.096080
v 0.489936 0.405289 1.096080
v 0.520031 0.396970 1.078286
v 0.227847 0.747590 1.078286
v 0.213478 0.737038 1.096080
v 0.067643 0.996414 1.078286
v 0.057937 0.978620 1.096080
v 0.064744 0.996414 1.078286
v 0.078370 0.978620 1.096080
v -0.652784 0.008220 1.078522
v -0.680541 -0.033173 1.059423
v -0.125393 0.302838 1.059422
v -0.150740 0.312122 1.079587
v -0.527252 0.723170 1.029419
v -0.510542 0.716204 1.056678
v -0.362318 0.950784 1.077175
v -0.355603 0.997240 1.059422
v -0.978800 0.767369 1.043948
v -0.952230 0.789030 1.068182
v -0.952174 0.966522 1.069892
v -0.978800 0.994279 1.043948
v -0.398350 0.966676 1.067064
v -0.352208 0.994279 1.043949
v -0.523858 0.720208 1.013945
v -0.536582 0.745707 1.044435
v -0.458782 -0.917852 1.030260
v -0.485319 -0.859258 1.092386
v -0.917446 -0.930396 1.092386
v -0.979573 -1.003586 1.030260
v -0.917446 -0.541014 1.092386
v -0.979573 -0.523406 1.030260
v -0.632908 -0.079376 1.092386
v -0.677919 -0.033999 1.030260
v -0.113785 0.234831 1.092386
v -0.122772 0.302011 1.030260
v 0.016398 0.197636 1.092386
v 0.081757 0.243574 1.030260
v -0.029558 -0.485126 1.092386
v 0.030624 -0.516101 1.030260
v -0.369029 -0.844175 1.030260
v -0.408448 -0.796155 1.092386
v -0.300679 -0.979199 1.067237
v -0.341909 -1.003586 1.042850
v 0.761082 -1.003586 1.042850
v 0.731291 -0.979199 1.067237
v -0.274091 -0.930821 1.067237
v -0.290776 -0.910548 1.042850
v 0.397423 -0.716508 1.067237
v 0.395853 -0.691411 1.042850
v 0.689297 -0.770810 1.067237
v 0.709949 -0.749847 1.042850
v 1.020427 -0.165482 1.051290
v 1.000429 -0.203438 1.071288
v 1.000429 -0.983588 1.071288
v 1.020427 -1.003586 1.051290
v 0.777452 -0.983588 1.071288
v 0.761082 -1.003586 1.051290
v 0.730671 -0.751440 1.071288
v 0.709949 -0.749847 1.051290
v 0.892564 -0.253137 1.051290
v 0.909133 -0.266024 1.071288
v 0.133821 0.203940 1.087330
v 0.081757 0.243574 1.032721
v 0.030624 -0.516101 1.032721
v 0.087593 -0.482873 1.087330
v 0.520031 0.396970 1.032721
v 0.505558 0.334048 1.087330
v 0.809419 0.028079 1.087330
v 0.861817 0.052814 1.032721
v 0.835428 -0.230724 1.087330
v 0.892564 -0.253137 1.032721
v 0.386859 -0.626520 1.087330
v 0.395853 -0.691411 1.032721
v -0.933634 -0.365178 1.050338
v -0.979803 -0.523492 1.005635
v -0.678150 -0.034086 1.005635
v -0.718725 -0.017043 1.045333
v -0.933731 0.720383 1.047395
v -0.979803 0.769417 1.005635
v -0.576927 0.683419 1.025022
v -0.524862 0.722256 0.975632
v -0.979573 -1.003586 1.082522
v -0.341909 -1.003586 1.082522
v -0.458782 -0.917852 1.082522
v -0.946689 -0.994378 1.128244
v -0.945631 -1.007331 1.128244
v -0.834136 -0.991695 1.134721
v -0.821678 -0.984157 1.138465
v -0.979573 -1.003586 1.122830
v -0.820621 -0.997110 1.138465
v -0.341909 -1.003586 1.122830
v -0.379262 -0.984218 1.138465
v -0.383483 -0.997110 1.138465
v -0.348048 -0.994439 1.128244
v -0.378223 -0.991695 1.134721
v -0.352270 -1.007331 1.128244
v -0.458782 -0.917852 1.122830
v -0.469845 -0.926237 1.138465
v -0.452712 -0.930337 1.138465
v -0.467265 -0.915454 1.128244
v -0.461784 -0.930398 1.134721
v -0.450132 -0.919554 1.128244
v -0.284063 -0.876957 1.107574
v -0.290776 -0.910548 1.077614
v 0.395853 -0.691411 1.077614
v 0.314916 -0.685793 1.107574
v 0.034874 -0.551373 1.107574
v 0.030624 -0.516101 1.077614
v -0.369029 -0.844175 1.077614
v -0.322269 -0.844551 1.107574
vn -1.0000 -0.0000 -0.0000
vn -0.0000 -0.0000 -1.0000
vn 1.0000 -0.0000 -0.0000
vn -0.0000 -1.0000 -0.0000
vn -0.0000 1.0000 -0.0000
vn -0.1624 0.9867 -0.0000
vn 0.6345 -0.7729 -0.0000
vn -0.0000 -0.0000 1.0000
vn 0.8511 -0.5246 -0.0213
vn 0.4327 0.9015 -0.0000
vn 0.2747 0.9615 -0.0000
vn -0.8513 0.5247 -0.0000
vn 0.1624 -0.9867 -0.0000
vn 0.9977 -0.0672 -0.0000
vn -0.5178 0.8555 -0.0000
vn 0.9794 -0.1997 -0.0294
vn -0.9995 -0.0000 0.0325
vn 0.1021 0.9947 -0.0155
vn 0.5915 0.8063 -0.0000
vn 0.3040 -0.9527 -0.0000
vn -0.6345 0.7729 -0.0000
vn -0.6468 -0.7626 -0.0000
vn -0.0000 0.7071 0.7071
vn 0.7071 -0.0000 0.7071
vn -0.3430 -0.6183 0.7071
vn -0.5432 -0.4527 0.7071
vn -0.5945 -0.3828 0.7071
vn -0.8408 -0.5413 -0.0000
vn -0.4851 -0.8745 -0.0000
vn -0.7682 -0.6402 -0.0000
vn -0.1943 -0.6799 0.7071
vn 0.5432 0.4527 0.7071
vn 0.5945 0.3828 0.7071
vn -0.0000 -0.7071 -0.7071
vn -0.6827 0.1843 0.7071
vn 0.2336 -0.6674 0.7071
vn -0.9654 0.2607 -0.0000
vn -0.2747 -0.9615 -0.0000
vn 0.3303 -0.9439 -0.0000
vn 0.7682 0.6402 -0.0000
vn 0.8408 0.5413 -0.0000
vn 0.3525 -0.5836 0.7316
vn -0.6992 0.3796 0.6058
vn 0.6342 0.2115 0.7436
vn -0.7728 0.1775 0.6094
vn 0.5173 -0.8547 0.0442
vn -0.0461 0.0156 0.9988
vn -0.9788 0.1961 -0.0584
vn 0.9481 0.3143 0.0477
vn -0.8433 0.5344 -0.0568
vn -0.6863 -0.0030 0.7273
vn 0.0017 0.6629 0.7487
vn -0.0376 -0.7523 0.6578
vn 0.6097 -0.4510 0.6518
vn -0.9997 -0.0000 0.0248
vn 0.0242 -0.0693 0.9973
vn -0.1071 -0.9921 -0.0652
vn -0.0000 0.9977 0.0682
vn 0.8489 -0.5254 -0.0569
vn 0.1149 -0.6977 0.7071
vn -0.7071 -0.0000 0.7071
vn -0.6019 0.3710 0.7071
vn -0.3661 0.6049 0.7071
vn 0.1943 0.6799 0.7071
vn 0.7055 -0.0475 0.7071
vn 0.4487 -0.5465 0.7071
vn 0.8513 -0.5247 -0.0000
vn 0.5178 -0.8555 -0.0000
vn -0.9977 0.0672 -0.0000
vn -0.0000 -0.7071 0.7071
vn -0.6197 0.3406 0.7071
vn -0.2150 0.6736 0.7071
vn 0.1293 0.6952 0.7071
vn 0.6932 0.1397 0.7071
vn -0.8764 0.4816 -0.0000
vn 0.9803 0.1975 -0.0000
vn -0.3040 0.9527 -0.0000
vn 0.1829 0.9831 -0.0000
vn -0.6932 -0.1397 0.7071
vn -0.3998 0.5832 0.7071
vn -0.6637 0.2440 0.7071
vn -0.5654 0.8248 -0.0000
vn -0.9803 -0.1975 -0.0000
vn -0.9386 0.3451 -0.0000
vn -0.7055 0.0475 0.7071
vn 0.5017 0.4983 0.7071
vn 0.7036 0.0707 0.7071
vn 0.4678 -0.5302 0.7071
vn -0.3060 -0.6375 0.7071
vn -0.2336 0.6674 0.7071
vn -0.3304 0.9439 -0.0000
vn -0.4327 -0.9015 -0.0000
vn 0.7095 0.7047 -0.0000
vn 0.9950 0.1000 -0.0000
vn 0.6616 -0.7498 -0.0000
vn 0.5963 -0.3635 0.7157
vn -0.6844 0.0009 0.7291
vn 0.1184 0.7110 0.6932
vn 0.7026 -0.1181 0.7017
vn -0.8511 0.5246 0.0213
vn 0.0426 0.0096 0.9990
vn 0.9995 -0.0000 -0.0325
vn -0.9794 0.1997 0.0294
vn -0.1021 -0.9947 0.0155
vn -0.0573 -0.0047 0.9983
vn -0.0976 -0.0080 0.9952
vn 0.3349 -0.1096 0.9359
vn 0.2036 -0.0667 0.9768
vn 0.1919 0.8019 0.5658
vn 0.1021 0.4269 0.8985
vn 0.0809 0.0066 -0.9967
vn -0.0000 -0.9239 0.3827
vn -0.2824 0.0925 -0.9548
vn -0.0000 -0.3827 0.9239
vn 0.5465 0.7449 0.3827
vn -0.1577 -0.6592 -0.7353
vn 0.2264 0.3086 0.9239
vn -0.1501 0.9116 0.3827
vn -0.0622 0.3776 0.9239
vn 0.1149 -0.6977 -0.7071
vn -0.0000 0.7071 -0.7071
vn -0.4182 -0.5701 -0.7071
vn 0.2150 -0.6736 0.7071
vn -0.4487 0.5465 0.7071
vn -0.4574 -0.5393 0.7071
vn 0.3060 0.6375 0.7071
vt 0.375000 0.000000
vt 0.435023 0.000000
vt 0.596636 0.000000
vt 0.625000 0.000000
vt 0.625000 0.250000
vt 0.375000 0.250000
vt 0.625000 0.500000
vt 0.375000 0.500000
vt 0.625000 0.750000
vt 0.515373 0.750000
vt 0.479763 0.750000
vt 0.375000 0.750000
vt 0.125000 0.500000
vt 0.342582 0.750000
vt 0.204708 0.750000
vt 0.125000 0.750000
vt 0.875000 0.500000
vt 0.875000 0.750000
vt 0.830902 0.750000
vt 0.762104 0.750000
vt 0.728638 0.750000
vt 0.385717 0.934901
vt 0.375000 1.000000
vt 0.394926 0.923682
vt 0.386630 0.913900
vt 0.375000 0.920292
vt 0.406717 0.788810
vt 0.468806 0.765983
vt 0.414022 0.828072
vt 0.625000 0.955902
vt 0.538200 0.892900
vt 0.625000 0.887104
vt 0.435023 1.000000
vt 0.496198 0.962293
vt 0.435936 0.873725
vt 0.550070 0.812549
vt 0.507050 0.769959
vt 0.530895 0.867334
vt 0.608506 0.970511
vt 0.596636 1.000000
vt 0.625000 0.853638
vt 0.619873 0.847286
vt 0.619873 0.754645
vt 0.524079 0.755054
vt 0.554088 0.808932
vt 0.550070 0.812550
vt 0.596937 0.842790
vt 0.593897 0.849072
vt 0.625000 0.853638
vt 0.593897 0.849072
vt 0.538200 0.892900
vt 0.530895 0.867334
vt 0.533228 0.867506
vt 0.539736 0.890455
vt 0.550070 0.812550
vt 0.593897 0.849073
vt 0.592578 0.851233
vt 0.551109 0.816386
vt 0.622776 0.890411
vt 0.625000 0.887104
vt 0.622776 0.854258
vt 0.496198 0.962293
vt 0.538200 0.892900
vt 0.539522 0.896893
vt 0.501906 0.959654
vt 0.605757 0.967486
vt 0.620461 0.954829
vt 0.625000 0.955902
vt 0.608506 0.970511
vt 0.600268 0.998275
vt 0.622006 0.998208
vt 0.625000 1.000000
vt 0.596680 1.000000
vt 0.625000 0.955925
vt 0.623347 0.959419
vt 0.609638 0.971128
vt 0.393041 0.938218
vt 0.384149 0.992234
vt 0.375000 1.000000
vt 0.385717 0.934901
vt 0.432822 0.992234
vt 0.435023 1.000000
vt 0.490526 0.956667
vt 0.496198 0.962293
vt 0.529802 0.891777
vt 0.525153 0.875504
vt 0.439807 0.881248
vt 0.435936 0.873725
vt 0.400929 0.928609
vt 0.394926 0.923682
vt 0.375000 0.920292
vt 0.375000 0.782418
vt 0.378048 0.786142
vt 0.378048 0.915138
vt 0.384096 0.911815
vt 0.386630 0.913900
vt 0.410885 0.827876
vt 0.414022 0.828072
vt 0.404097 0.791391
vt 0.375000 0.782418
vt 0.475019 0.752500
vt 0.377500 0.752500
vt 0.479763 0.750000
vt 0.377500 0.780372
vt 0.406717 0.788810
vt 0.406518 0.786220
vt 0.468806 0.765983
vt 0.467195 0.763912
vt 0.435936 0.873725
vt 0.440089 0.866605
vt 0.525941 0.860827
vt 0.542204 0.814367
vt 0.503958 0.776480
vt 0.507050 0.769959
vt 0.550070 0.812549
vt 0.471608 0.773139
vt 0.468806 0.765983
vt 0.422133 0.829197
vt 0.414022 0.828072
vt 0.435023 1.000000
vt 0.496198 0.962294
vt 0.498810 0.968368
vt 0.454804 0.994505
vt 0.592016 0.996852
vt 0.596593 1.000000
vt 0.600997 0.973216
vt 0.608506 0.970511
vt 0.435023 0.000000
vt 0.596636 0.000000
vt 0.376151 0.995890
vt 0.374532 0.995758
vt 0.376486 0.981820
vt 0.377480 0.980271
vt 0.375000 1.000000
vt 0.375939 0.980152
vt 0.377466 0.924928
vt 0.375843 0.925464
vt 0.376143 0.921059
vt 0.376486 0.924831
vt 0.374532 0.921587
vt 0.385717 0.934901
vt 0.384669 0.936284
vt 0.384156 0.934142
vt 0.386017 0.935961
vt 0.384148 0.935276
vt 0.385504 0.933820
vt 0.125000 0.750000
vt 0.386630 0.913900
vt 0.414724 0.838189
vt 0.390829 0.913061
vt 0.435936 0.873725
vt 0.394926 0.923682
vt 0.394879 0.917837
vt 0.431527 0.873194
s 0
usemtl Material.001
f 1/1/1 15/2/1 28/3/1 2/4/1 4/5/1 3/6/1
f 3/6/2 4/5/2 8/7/2 7/8/2
f 7/8/3 8/7/3 6/9/3 24/10/3 21/11/3 5/12/3
f 3/13/4 7/8/4 5/12/4 10/14/4 9/15/4 1/16/4
f 8/7/5 4/17/5 2/18/5 27/19/5 30/20/5 23/21/5 6/9/5
f 14/22/6 1/23/6 44/23/6 46/22/6
f 14/22/7 20/24/7 39/24/7 32/22/7
f 15/33/9 16/34/9 41/34/9 40/33/9
f 12/29/10 19/35/10 49/35/10 48/29/10
f 18/38/11 17/31/11 36/31/11 37/38/11
f 16/34/12 15/33/12 34/33/12 35/34/12
f 1/23/13 14/22/13 32/22/13 33/23/13
f 20/24/7 19/35/7 38/35/7 39/24/7
f 19/35/14 18/38/14 37/38/14 38/35/14
f 17/31/15 16/34/15 35/34/15 36/31/15
f 15/2/1 1/1/1 33/1/1 34/2/1
f 16/34/16 29/39/16 43/39/16 41/34/16
f 28/3/17 15/2/17 40/2/17 42/3/17
f 29/39/18 28/40/18 42/40/18 43/39/18
f 46/22/6 44/23/6 145/23/6 147/22/6
f 9/26/19 14/22/19 46/22/19 45/26/19
f 1/16/4 9/15/4 45/15/4 44/16/4
f 11/25/20 12/29/20 48/29/20 47/25/20
f 19/35/21 20/24/21 50/24/21 49/35/21
f 20/24/22 11/25/22 47/25/22 50/24/22
f 52/9/23 53/41/23 54/42/23 51/43/23
f 51/43/24 55/44/24 56/10/24 52/9/24
f 55/44/25 57/45/25 58/46/25 56/10/25
f 57/45/26 59/47/26 60/48/26 58/46/26
f 59/47/27 54/42/27 53/41/27 60/48/27
f 6/9/5 23/21/5 53/21/5 52/9/5
f 54/42/8 59/47/8 57/45/8 55/44/8 51/43/8
f 24/10/3 6/9/3 52/9/3 56/10/3
f 23/49/28 26/50/28 60/48/28 53/41/28
f 25/36/29 24/10/29 56/10/29 58/46/29
f 26/50/30 25/36/30 58/46/30 60/48/30
f 62/51/31 63/52/31 64/53/31 61/54/31
f 66/55/32 67/56/32 68/57/32 65/58/32
f 67/56/33 69/41/33 70/59/33 68/57/33
f 69/41/34 71/60/34 72/61/34 70/59/34
f 61/54/35 72/61/35 71/60/35 62/51/35
f 63/52/36 66/55/36 65/58/36 64/53/36
f 30/32/37 17/31/37 62/51/37 71/60/37
f 17/31/38 18/38/38 63/52/38 62/51/38
f 18/38/39 25/36/39 66/55/39 63/52/39
f 25/36/40 26/50/40 67/56/40 66/55/40
f 26/50/41 23/49/41 69/41/41 67/56/41
f 23/21/5 30/20/5 71/20/5 69/21/5
f 74/62/42 75/63/42 76/64/42 73/65/42
f 78/66/43 79/67/43 80/68/43 77/69/43
f 79/67/44 76/64/44 75/63/44 80/68/44
f 73/65/45 78/66/45 77/69/45 74/62/45
f 16/34/46 17/31/46 75/63/46 74/62/46
f 76/64/47 79/67/47 78/66/47 73/65/47
f 29/39/48 16/34/48 74/62/48 77/69/48
f 17/31/49 27/30/49 80/68/49 75/63/49
f 27/30/50 29/39/50 77/69/50 80/68/50
f 82/70/51 83/71/51 84/72/51 81/73/51
f 86/74/52 84/72/52 83/71/52 85/75/52
f 81/73/53 87/39/53 88/76/53 82/70/53
f 87/39/54 86/74/54 85/75/54 88/76/54
f 2/4/55 28/3/55 81/3/55 84/4/55
f 82/70/56 88/76/56 85/75/56 83/71/56
f 28/40/57 29/39/57 87/39/57 81/73/57
f 27/19/58 2/18/58 84/18/58 86/19/58
f 29/39/59 27/30/59 86/74/59 87/39/59
f 90/77/60 91/78/60 92/79/60 89/80/60
f 91/78/61 93/81/61 94/82/61 92/79/61
f 93/81/62 95/83/62 96/84/62 94/82/62
f 95/83/63 97/85/63 98/63/63 96/84/63
f 97/85/64 99/86/64 100/52/64 98/63/64
f 99/86/65 101/87/65 102/88/65 100/52/65
f 104/89/66 90/77/66 89/80/66 103/90/66
f 101/87/66 104/89/66 103/90/66 102/88/66
f 33/23/6 32/22/6 89/80/6 92/79/6
f 32/22/21 39/24/21 103/90/21 89/80/21
f 34/2/3 33/1/3 92/1/3 94/2/3
f 35/34/67 34/33/67 94/82/67 96/84/67
f 36/31/68 35/34/68 96/84/68 98/63/68
f 37/38/38 36/31/38 98/63/38 100/52/38
f 38/35/69 37/38/69 100/52/69 102/88/69
f 39/24/21 38/35/21 102/88/21 103/90/21
f 106/91/70 107/92/70 108/93/70 105/94/70
f 105/94/71 109/95/71 110/96/71 106/91/71
f 109/95/72 111/97/72 112/98/72 110/96/72
f 111/97/73 113/99/73 114/27/73 112/98/73
f 113/99/74 108/93/74 107/92/74 114/27/74
f 9/15/4 10/14/4 107/14/4 106/15/4
f 11/25/75 9/26/75 106/91/75 110/96/75
f 10/100/76 13/27/76 114/27/76 107/92/76
f 12/29/77 11/25/77 110/96/77 112/98/77
f 13/27/78 12/29/78 112/98/78 114/27/78
f 116/101/24 117/102/24 118/12/24 115/103/24
f 120/100/70 118/12/70 117/102/70 119/104/70
f 122/105/79 120/100/79 119/104/79 121/106/79
f 115/103/80 123/107/80 124/108/80 116/101/80
f 123/107/81 122/105/81 121/106/81 124/108/81
f 5/12/3 21/11/3 115/103/3 118/12/3
f 21/11/82 22/28/82 123/107/82 115/103/82
f 10/14/4 5/12/4 118/12/4 120/14/4
f 13/27/83 10/100/83 120/100/83 122/105/83
f 22/28/84 13/27/84 122/105/84 123/107/84
f 126/52/85 127/109/85 128/110/85 125/111/85
f 130/112/86 131/113/86 132/114/86 129/115/86
f 131/113/87 133/116/87 134/117/87 132/114/87
f 133/116/88 135/118/88 136/119/88 134/117/88
f 135/118/89 128/110/89 127/109/89 136/119/89
f 125/111/90 130/112/90 129/115/90 126/52/90
f 18/38/69 19/35/69 127/109/69 126/52/69
f 25/36/91 18/38/91 126/52/91 129/115/91
f 19/35/92 12/29/92 136/119/92 127/109/92
f 31/37/93 25/36/93 129/115/93 132/114/93
f 22/28/94 31/37/94 132/114/94 134/117/94
f 12/29/95 22/28/95 134/117/95 136/119/95
f 138/120/96 139/121/96 140/122/96 137/123/96
f 137/123/97 141/124/97 142/125/97 138/120/97
f 141/124/98 143/126/98 144/127/98 142/125/98
f 139/121/99 144/127/99 143/126/99 140/122/99
f 40/33/100 41/34/100 139/121/100 138/120/100
f 140/122/101 143/126/101 141/124/101 137/123/101
f 42/3/102 40/2/102 138/128/102 142/129/102
f 41/34/103 43/39/103 144/127/103 139/121/103
f 43/39/104 42/40/104 142/125/104 144/127/104
f 45/26/19 46/22/19 147/22/19 146/26/19
f 44/16/4 45/15/4 146/15/4 145/16/4
f 148/130/105 149/131/105 150/132/105
f 151/133/106 152/134/106 153/135/106
f 154/26/107 155/136/107 156/137/107
f 157/138/108 158/139/108 159/140/108
f 160/141/109 161/142/109 162/143/109
f 163/144/110 164/145/110 165/146/110
f 148/130/111 151/133/111 153/135/111 149/131/111
f 152/134/112 154/26/112 156/137/112 153/135/112
f 155/136/113 157/138/113 159/140/113 156/137/113
f 158/139/114 150/132/114 149/131/114 159/140/114
f 154/26/115 160/141/115 162/143/115 155/136/115
f 161/142/116 163/144/116 165/146/116 162/143/116
f 164/145/117 158/139/117 157/138/117 165/146/117
f 160/141/118 152/134/118 151/133/118 161/142/118
f 150/132/119 164/145/119 163/144/119 148/130/119
f 161/142/120 151/133/120 148/130/120 163/144/120
f 153/135/121 156/137/121 159/140/121 149/131/121
f 158/139/8 164/145/8 150/132/8
f 147/22/6 145/23/6 152/134/6 160/141/6
f 145/16/4 146/15/4 154/15/4 152/147/4
f 155/136/122 162/143/122 165/146/122 157/138/122
f 146/26/19 147/22/19 160/141/19 154/26/19
f 167/148/123 168/29/123 169/149/123 166/150/123
f 171/151/124 172/152/124 173/153/124 170/154/124
f 166/150/125 173/153/125 172/152/125 167/148/125
f 168/29/126 171/151/126 170/154/126 169/149/126
f 47/25/20 48/29/20 168/29/20 167/148/20
f 169/149/8 170/154/8 173/153/8 166/150/8
f 50/24/22 47/25/22 167/148/22 172/152/22
f 48/29/10 49/35/10 171/151/10 168/29/10
f 49/35/21 50/24/21 172/152/21 171/151/21
usemtl Material.002
f 64/53/8 65/58/8 68/57/8 70/59/8 72/61/8 61/54/8
f 90/77/8 104/89/8 101/87/8 99/86/8 97/85/8 95/83/8 93/81/8 91/78/8
f 108/93/8 113/99/8 111/97/8 109/95/8 105/94/8
f 117/102/8 116/101/8 124/108/8 121/106/8 119/104/8
f 128/110/8 135/118/8 133/116/8 131/113/8 130/112/8 125/111/8
usemtl Material.003
f 11/25/8 20/24/8 14/22/8 9/26/8
f 13/27/8 22/28/8 12/29/8
f 27/30/8 17/31/8 30/32/8
f 25/36/8 31/37/8 22/28/8 21/11/8 24/10/8
